<?xml version="1.0" standalone="no"?>
<!DOCTYPE svg PUBLIC "-//W3C//DTD SVG 20010904//EN"
 "http://www.w3.org/TR/2001/REC-SVG-20010904/DTD/svg10.dtd">
<svg version="1.0" xmlns="http://www.w3.org/2000/svg"
 width="400.000000pt" height="400.000000pt" viewBox="0 0 400.000000 400.000000"
 preserveAspectRatio="xMidYMid meet">
<metadata>
Created by potrace 1.11, written by Peter Selinger 2001-2013
</metadata>
<g transform="translate(0.000000,400.000000) scale(0.100000,-0.100000)"
fill="#000000" stroke="none">
<path d="M1735 3910 c-340 -28 -619 -95 -844 -201 -231 -109 -351 -237 -351
-376 0 -28 38 -437 85 -909 47 -471 84 -859 81 -861 -3 -3 -45 1 -93 8 -49 8
-169 14 -273 14 -179 0 -186 -1 -228 -25 -27 -15 -54 -42 -70 -70 -24 -40 -27
-55 -26 -130 4 -333 233 -682 599 -915 33 -21 118 -66 188 -101 688 -335 1706
-335 2394 0 70 35 155 80 188 101 366 233 595 582 599 915 1 75 -2 90 -26 130
-16 28 -43 55 -70 70 -42 25 -47 25 -243 24 -123 -1 -232 -7 -282 -16 -46 -8
-83 -14 -83 -14 0 1 40 402 89 893 71 707 87 900 80 935 -46 203 -367 389
-825 478 -251 48 -641 70 -889 50z m-919 -935 c43 -25 87 -48 96 -51 10 -3 20
-15 23 -27 2 -12 36 -332 75 -712 38 -379 72 -702 75 -717 3 -19 0 -28 -9 -28
-9 0 -179 99 -193 114 -2 2 -153 1443 -153 1459 0 11 1 10 86 -38z m471 -159
c4 -2 164 -1509 160 -1513 -3 -2 -49 11 -103 29 l-99 33 -77 735 c-42 404 -77
745 -77 756 -1 21 0 21 97 -9 53 -17 98 -31 99 -31z m-365 -1395 c109 -73 300
-156 472 -206 615 -176 1446 -52 1793 268 24 22 43 33 43 26 0 -8 -7 -92 -15
-188 -16 -193 -19 -203 -106 -289 -154 -153 -426 -261 -794 -314 -137 -20
-522 -17 -665 5 -405 63 -705 204 -827 389 -22 33 -27 56 -39 205 -7 92 -14
181 -14 196 l0 29 53 -45 c28 -24 73 -58 99 -76z"/>
</g>
</svg>
